<svg xmlns="http://www.w3.org/2000/svg" xmlns:xlink="http://www.w3.org/1999/xlink" viewBox="0 0 542.25 283.5">
  <defs>
    <style>
      .cls-1 {
        isolation: isolate;
      }

      .cls-2 {
        fill: none;
        fill-rule: evenodd;
      }
    </style>
  </defs>
  <g id="back" class="cls-1">
    <path class="cls-2" d="M501,102c.26,21.72,7.32,76.24-6.75,86.25-.92.65-3.07.27-3.75.75,1,.42.56,0,.75.75-5.1,4.34-16.92.59-24.75,2.25-8,1.71-21.86-.41-32.25,0-36,1.42-49.75.12-66.75,0-.47-1.32-.14-.73-.75-1.5,3.33-10.66,1.92-27.49,9-41.25,4.33-8.42,11.66-11.49,19.5-16.5.7-.45,1.67-2.65,2.25-3,3.39-2,8.64.23,11.25-.75,1.91-.71,6.79-3.81,9-4.5H430.5c12.76-3.22,26.91-7.82,39.75-12,8.26-2.69,22-3.24,25.5-10.5l1.5,1.5c.28-1.56.18-1.44.75-2.25C498.88,101.85,499.26,101.83,501,102Z"/>
  </g>
  <g id="hole" class="cls-1">
    <path class="cls-2" d="M467.25,51c-.62,6.63-5.48,15.89-8.25,19.5-4.92,6.41-12.91,7-21,10.5-16.08,7.06-35.88,9.19-45.75,5.25-4.79-1.91-16.26-2.83-19.5-9.75a8.83,8.83,0,0,0,1.5-2.25c23.31,13.64,47.25,8.25,75.75-4.5,1.5-.25,3-2,4.5-2.25a11.35,11.35,0,0,0,3-2.25c1.71-2.25,2.81-2.9,4.5-5.25A86,86,0,0,0,467.25,51Z"/>
  </g>
  <g id="middle" class="cls-1">
    <path class="cls-2" d="M339,56.25c-.22-2.13-.5-3.27-1.5-4.5-4.46-3.93-15.6-6.25-18.75-10.5,3.8-.46,5.9-1.4,10.5-1.5,3.06,5,9.31,5.42,12.75,9.75,14.11,17.77,43.25,48.87,80.25,37.5,5-1.52,11.12-3.16,16.5-5.25,2.15-.83,4.82-3.69,6.75-4.5,3.25-1.38,5.34-.09,8.25-1.5C471,67.4,455.58,45.12,484.5,45c2.06,3.54,5.5,7.06,6.75,11.25,2.47,8.24.8,16,3,24.75,1.7,6.72,4.38,10.21,4.5,18.75l-.75.75-.75-.75c-3.93-5.17-4.32-11.15-13.5-11.25-2,1.36-5.27.83-7.5,2.25-5.34,3.42-16.4,7.45-23.25,9-2.56.58-5-1-6.75-.75-2,.29-4.49,2.49-6,3-7.15,2.41-12.16-.64-18,3l-.75,2.25L411,108c-8.17,2-20.95,3.26-27,5.25h-7.5c-12.83,2.88-28.21.78-41.25,3.75-12.07,2.74-26.31-2.81-39,0-8.42,1.86-18.52,2.61-26.25,4.5h-6.75c-10.58,3.8-16.93,10.11-27.75,7.5h-9c-6.84-1.63-20-3.72-28.5-2.25-3.05.53-6.14,1.55-9.75.75-7-1.54-13.92,2.86-18.75-.75l-.75-.75h1.5c4.38-2.56,12.76-.08,17.25-2.25,5.28-2.56,12.82-6.54,18.75-8.25,7.08-2,14.1,1.81,21-.75,5.95-2.21,13-6.8,18.75-9,8.2-3.12,15.69,5.6,24,3,3.09-1,6.71-4.06,9.75-5.25,8.89-3.49,16.08-7.57,24-11.25,2.42-1.12,7.16-1.54,8.25-3.75V77.25c2.09-3.09,1.53-7,1.5-11.25h.75c1,1.85-.32.51,1.5,1.5C319.7,61.62,329.27,56.23,339,56.25Z"/>
    <path class="cls-2" d="M392.25,130.5h3v.75c-6.67,6-15.19,9.63-19.5,18-2,3.89-4.06,19.21-6.75,21-6.72-6.14-35.29-18.61-45.75-21l.75-.75-.75-1.5H324c8.34-10.94,36.82-10.08,52.5-14.25C382.08,131.27,388.08,133.22,392.25,130.5Z"/>
  </g>
  <g id="top-back" class="cls-1">
    <path class="cls-2" d="M349.5,24.75c3.93,1.45,3.56,4.51,8.25,5.25,2.17-3.43,4.61-4.63,10.5-4.5C372.94,33.42,377,44.39,379.5,54s-5.34,24-8.25,23.25c-5.93-1.67-18.93-14-22.5-18.75-1.83-2.42-3.47-5.93-6-7.5-6.69-4.16-11.9-7.47-17.25-12.75C332.15,38.24,345.37,28.43,349.5,24.75Z"/>
    <path class="cls-2" d="M485.25,48.75c10.8,7.38,8.27,40.41,15,53.25H498c-2.74-6.3-5.49-9.07-9.75-13.5-9.48.31-17.2,6.59-28.5,3.75-5.45-1.37-10.06-4.69-16.5-5.25V85.5c9.92-.82,22.77-7.31,27-14.25,2.61-4.29,3-13.79,6-17.25C478.29,51.63,482.73,50.69,485.25,48.75Z"/>
  </g>
  <g id="brand" class="cls-1">
    <path class="cls-2" d="M312,66h1.5c.62,4.14-.82,17.92-2.25,22.5C305.8,94,292.8,98.21,285,102c-4.84,2.35-9.13,5.25-15,6.75-9.51,2.43-14.18-4.35-22.5-2.25-8,2-15.68,7.75-23.25,9.75-5.08,1.34-11.77-.76-18.75-.75v-.75c.6-.77.27-.21.75-1.5,26.9-12,55.66-23.36,81.75-36.75A174.06,174.06,0,0,1,305.25,69,37.86,37.86,0,0,0,312,66Z"/>
  </g>
  <g id="mesh" class="cls-1">
    <path class="cls-2" d="M134.25,122.25v3l7.5,3.75c4.4,1.21,8.19-.8,11.25-1.5l6,.75c7.08.11,13.08-.42,17.25-1.5H195c16.11,0,32.36,1,45.75,3.75-.77.6-.21.27-1.5.75-2.8,1.94-7.38,3.76-11.25,6.75l-4.5,6.75c-3.56,2.36-7,2.33-9.75,5.25-4.19,4.41-4.32,10.9-12,12-2.75-1.91-4.78-1.08-7.5-1.5,0,0-2.85-.68-3-.75v-1.5c-4.17-2-9.71.26-12.75-.75l-.75-1.5c-1.57-.43-6.36,1.16-9,.75C161.18,155.57,152.8,155,144,153l-9.75.75c-9.79-1.62-23.14.49-34.5-2.25l-9,.75a56.33,56.33,0,0,1-21-3.75,29,29,0,0,1-2.25-5.25c3.64-1.68,8.65-1.26,12.75-3,5.34-2.27,12.52-5.81,18-7.5l7.5-.75C115,129.15,122.47,123,134.25,122.25Z"/>
    <path class="cls-2" d="M321,148.5c11.5,1.33,29.72,12.22,39,17.25,4,2.18,9.71,2.05,10.5,7.5-1.27,2-3.63,15.92-4.5,18.75-3.42-.45-5.71.87-9,1.5-1.91.36-7.25-1.48-10.5-.75-11.89,2.68-28.52,2.93-39.75,3L306,193.5c-2.9-3.94-.33-10,.75-14.25,1.92-7.55,2.31-14.4,6-20.25C315,155.42,318.64,152.29,321,148.5Z"/>
  </g>
  <g id="laces" class="cls-1">
    <path class="cls-2" d="M254.25,76.5V74.25a12.92,12.92,0,0,1-6-2.25H249a17.05,17.05,0,0,1,11.25-6.75c.72-5,8-11.46,12-12.75h12c2.05-.92,2.92-4.49,4.5-6,2.87-2.75,14.09-6.6,19.5-6.75l.75.75c-1.14,5.62,1,7.77,2.25,12.75-2.74.91-2.4,1.84-6,2.25-5.1-3.52-13.66-2.83-19.5-.75,1.28,2,1.9,1.87,2.25,5.25-2.3,1-2.18-.1-2.25,4.5H285c-1.49,1-4.88.83-7.5.75-2.89-2.24-6.05-3-11.25-3-.07,2.56-.83,1.67-3,3.75,2.47,2.24,3.09,4,3,9a13.46,13.46,0,0,0-3,2.25Z"/>
    <path class="cls-2" d="M236.25,75.75h6v1.5c2,2.48,1.1,4.63.75,8.25-2.1,1.13-3.72,1.53-7.5,1.5-2.63-2.84-7.43-2.76-9.75-6C228.42,79.45,233.89,77.93,236.25,75.75Z"/>
    <path class="cls-2" d="M216.75,85.5c2.53,1.21,2.74,3.39,4.5,5.25-.33,2.11.09,2.45-.75,3.75-.89,2.7-1.13,2.74-4.5,3-3.14-1.85-9.09-1.56-12-6C207.28,89.55,213.57,88.05,216.75,85.5Z"/>
    <path class="cls-2" d="M192,94.5h6.75v.75C197,98.86,200,105.94,196.5,108c-1.27.86-3.67.8-6,.75-1.64-3.79-5-2.73-6-7.5h-.75l.75-.75C186.49,98,189.77,96.79,192,94.5Z"/>
    <path class="cls-2" d="M176.25,105v10.5c-2.61,1.31-3.27,2.14-7.5,2.25-.8-.56-.71-.45-2.25-.75-.49-4.18-.89-4.89-.75-9l1.5-.75C169.48,105.58,172.43,105.05,176.25,105Z"/>
  </g>
  <g id="laces-bottom" class="cls-1">
    <path class="cls-2" d="M166.5,117c3.85.52,6.31.77,9-1.5,1.31-2,.84-7.27.75-10.5-1.32-.47-.73-.14-1.5-.75,4.83-.29,5.88-2.18,9.75-3v2.25c4,2.59,5.18,5.22,12,5.25.77-.6.21-.27,1.5-.75-.09-2.24,0-12.43,2.25-13.5,3.66-2.6,12.15,2.35,18.75,3a13.46,13.46,0,0,1,2.25-3c-.5-3.61-1.77-5.17-3-9,10.05-4.21,11.79,1,22.5,0V83.25c1.56-.28,1.44-.18,2.25-.75.6-.88.58-1.26.75-3a8.77,8.77,0,0,1-1.5-3.75c3.94-1,4.3-2.65,9-3,1.18,1.37.66,1,3,1.5V76.5c4.58.08,7.07.61,10.5,0,1.13-2.1,1.53-3.72,1.5-7.5a8.17,8.17,0,0,1-3-3.75c4.89-1.4,2-2.86,9-3,2.73,2.82,7,3.13,12.75,3l.75-.75V60c2.15,0,1.94.7,2.25-3l-2.25-2.25A21.66,21.66,0,0,1,292.5,54c3.29-2.31,10.13.93,15.75,1.5,1.09-1.59,2.13-1.87,3-3.75a14.88,14.88,0,0,1-3-9c2.68-.48,6-2.9,9.75-1.5,6,2.23,16,7.38,17.25,14.25-5.1,1.91-9.73,5.76-14.25,7.5h-4.5l-5.25,5.25c-.61.3-1.48-1.37-3-.75-9.94,4.06-21.14,10.86-30.75,15.75-10.21,5.19-20.37,7.47-30.75,12-19.43,8.48-35.61,18.24-55.5,25.5-12.88,4.7-33.17,7.69-45.75,9-4.86.51-10.92-3.26-11.25-8.25,6.53-3.62,16-3.24,24-6,1.95-.67,6.47-4.37,6.75-3.75C166,113.06,166.26,114.92,166.5,117Z"/>
  </g>
  <g id="bottom" class="cls-1">
    <path class="cls-2" d="M458.25,190.5c14,0,27.71-1.94,39.75-1.5,1.13,2.1,1.53,3.72,1.5,7.5,2.18,3.21,1,15.5-.75,18-1.45,2-4.68,3.61-6,6s1,6.57-2.25,8.25h-5.25c-2.11-.8-6.13,2.45-9,3.75-.06,5.05-1.94,6.53-6.75,6.75-3-4.18-5.8-6.21-13.5-6l-.75,3.75c-2.55,1.16-3.07,2-6.75,2.25-2.87-4-5.32-5.48-12.75-5.25-2.8,2.63-4.43,5-9.75,5.25-1.72-2.18-3-1.73-3.75-5.25H411c-.93,3.66-3.26,5-7.5,5.25-1.44-3.24-3.14-1.52-3.75-6H391.5c-2,2.92-4.41,5.59-9,6-1.09-2.86-.88-.67-3-2.25-.83-.62-.74-3.24-1.5-3.75h-9c-2,3.38-3.54,5.15-9,5.25-1.13-1.39-2.08-1.29-3-3-.56-.8-.45-.71-.75-2.25H346.5v3c-2.09,1.38-2.12,2.39-5.25,3-1.09-1.59-2.13-1.87-3-3.75-.56-.8-.45-.71-.75-2.25h-9c-1.31,4-1.38,5.87-6.75,6-2.6-4.53-4.33-5.57-12-5.25-.81,3.64-2.26,5.82-6.75,6l-.75-2.25c-1.12-1.22-1.16-1.52-1.5-3.75-4.18.05-5.54,1-9,1.5v3.75h-1.5c-1,.66-1.85.67-3.75.75-2.7-4.59-4.06-6.3-12-6-.77.6-.21.27-1.5.75-.61,3.38-.36,4.65-3,5.25-1.06.72-2.46.73-4.5.75-3.67-4.19-5.75-5.49-14.25-5.25v2.25c-3.48,2-2.7,4.27-8.25,4.5-1.91-5.35-6.45-6.32-14.25-6-1.25,4.54-3.37,7-9.75,6.75-2.15-6.23-3.12-7.21-12-6.75-.88,3.18-2.3,3.36-3,6.75l-4.5.75c-2.88-5.08-4.84-7.79-13.5-7.5-1.17,2.07-4.66,6.51-5.25,6.75-1,.66-1.85.67-3.75.75a13.64,13.64,0,0,0-3.75-5.25v-2.25h-10.5c-1.09,3.71-3.15,6-8.25,6-.66-3.19-2.46-4.39-3.75-7.5-2.18.55-7.07-.74-9,0-3,1.14-2.1,3.39-8.25,3.75l-2.25-2.25c-2.1-3.32-.23-4.48-6-4.5-3.69-2.24-6.88,2.56-12,3-2.28-4-2.88-6.92-9.75-6.75-2.23-1-5.58,2-10.5,2.25-1.28-2.3-2.62-7.13-5.25-8.25-3.58-2.59-7.33-1.63-12.75-1.5-3.09-4.65-7-8.59-12.75-10.5H57v-.75C54.08,207,44.65,199.2,42.75,196.5H42V192c.66-1,.67-1.85.75-3.75a13.46,13.46,0,0,0,3-2.25c7.4,2.94,16.21,5.15,24.75,7.5l13.5.75c7.64,1.72,18.06,2,25.5,3.75l18.75.75c7,1.56,17.65,2.25,24,3.75l21-.75c15.65,3.38,51.93.91,65.25-2.25l8.25.75c14.09-3.87,29.17-1.23,43.5-4.5h8.25c1.6-.37,4.79-1.92,6-2.25,1.88,1.07,5.32,3.79,9.75,2.25,7.58-2.64,15.6-1.34,21.75-3.75l6.75,1.5c10.74-2,19.52-1.41,33-1.5l.75.75c-.07,2.32-.11,4.75.75,6,2.75,1.79,10.83.85,15,.75,3.42-2.14,13.06-.75,18-.75h46.5C457.94,196.54,458.31,194.46,458.25,190.5Z"/>
  </g>
  <g id="middle-half" class="cls-1">
    <path class="cls-2" d="M303.75,195.75s3.28-28.26,10.5-37.5,10.94-16.62,33.75-21c0,0,42.63-6.66,49.5-7.5s80.27-14.25,99-26.25c0,0,2.86-7-12-15,0,0-67.07,24.51-99,23.25,0,0-103.75,8-119.25,10.5,0,0-50.22,9.62-62.25,42.75,0,0,13.59,2.08,43.5,33.75Z"/>
  </g>
  <g id="tip" class="cls-1">
    <path class="cls-2" d="M66.75,144c3.64,2.9,4.11,5.81,9.75,7.5,12.28,3.69,25,.27,35.25,1.5,5.75-.25,11.5.25,17.25,0,0,.16,5.25.25,5.25.75,4.66.27,6.54.45,12,.75,0,.5,1.5-.5,1.5,0a35.94,35.94,0,0,0,5.25.75c2.32-.11,3.57.9,4.5.75a78.58,78.58,0,0,1,10.5.75c2.41.63,6-.46,7.5,0,.25.5,2.75.25,3,.75a39.21,39.21,0,0,1,6,.75c.25.5,5.75,1,6,1.5,3.08.93,7.9,1.83,10.5,3,19.46,8.75,38.59,20.54,47.25,38.25h-1.5c-2.92.45-5.83.47-9,.75-13,1.15-31.15.75-47.25.75-19.36,0-45.05-1.27-62.25-3-10.65-1.07-20.79-1.23-30-2.25C84.45,195.73,74,195,62.25,192L45,186c-4.2-8.45-3.91-11.2-3.75-23.25l7.5-8.25C54.59,150.48,62.7,149.72,66.75,144Z"/>
  </g>
  <g id="shadow_Image" data-name="shadow Image">
    <image id="shadow_Image-2" data-name="shadow Image" width="623" height="298" transform="translate(36 24) scale(0.75)" xlink:href="shoe1.png"/>
  </g>
</svg>
