<svg xmlns="http://www.w3.org/2000/svg" xmlns:xlink="http://www.w3.org/1999/xlink" viewBox="0 0 542.25 283.5">
  <defs>
    <style>
      .cls-1 {
        isolation: isolate;
      }

      .cls-2 {
        fill: transparent;
        fill-rule: evenodd;
      }
    </style>
  </defs>

  <g id="back" class="cls-1">
    <path class="cls-2" d="M495,189c.12-.09-.51-.92-.39-1,13.59-10.67,6.65-64.45,6.39-86-1.74-.17-2.12-.15-3-.75-.57.81-.47.69-.75,2.25l-1.5-1.5c-3.51,7.26-17.24,7.81-25.5,10.5-12.84,4.18-27,8.78-39.75,12H417.75c-2.21.69-7.09,3.79-9,4.5-2.61,1-7.86-1.3-11.25.75-.58.35-1.55,2.55-2.25,3-7.84,5-15.17,8.08-19.5,16.5-7.08,13.76-5.67,30.59-9,41.25.61.77.28.18.75,1.5,17,.12,30.78,1.42,66.75,0,10.39-.41,24.22,1.71,32.25,0,7.83-1.66,17.64-.2,24-3C491.35,189.81,494.08,189.65,495,189Z"/>
  </g>
  <g id="hole" class="cls-1">
    <path class="cls-2" d="M467.25,51c-.62,6.63-5.48,15.89-8.25,19.5-4.92,6.41-12.91,7-21,10.5-16.08,7.06-35.88,9.19-45.75,5.25-4.79-1.91-16.26-2.83-19.5-9.75a8.83,8.83,0,0,0,1.5-2.25c23.31,13.64,47.25,8.25,75.75-4.5,1.5-.25,3-2,4.5-2.25a11.35,11.35,0,0,0,3-2.25c1.71-2.25,2.81-2.9,4.5-5.25A86,86,0,0,0,467.25,51Z"/>
  </g>
  <g id="middle" class="cls-1">
    <path class="cls-2" d="M453,99a188.9,188.9,0,0,0,23.25-7.5c2.46-1,5.48-1.64,7.5-3,9.18.1,9.57,6.08,13.5,11.25l.75.75.75-.75c-.12-8.54-2.8-12-4.5-18.75-2.2-8.71-.53-16.51-3-24.75C490,52.06,486.56,48.54,484.5,45c-25.93.12-15.42,22.35-30,29.25-2.93,1.38-5.75,2.37-9,3.75-1.93.81-6.1,2.17-8.25,3A76.24,76.24,0,0,1,420,85.5c-45,5.13-63.89-18.23-78-36-3.44-4.33-9.69-4.74-12.75-9.75-4.6.1-6.7,1-10.5,1.5C321.9,45.5,331.54,48.57,336,52.5c1,1.23,1.28.87,1.5,3C327.22,58,322.45,61.69,315,66c-1.82-1,.22,1.85-.75,0h-.75c0,4.25.59,8.16-1.5,11.25v10.5c-1.09,2.21-5.83,3.38-8.25,4.5-7.92,3.68-15.11,7.76-24,11.25-3,1.19-6.66,4.29-9.75,5.25-8.31,2.6-15.8-6.12-24-3-5.78,2.2-12.8,6.79-18.75,9-6.9,2.56-13.92-1.29-21,.75-5.93,1.71-14.22,3.44-19.5,6-4.49,2.17-17.37,1.94-21.75,4.5-.5,0-3.25,1.5-3.75,1.5.25.25,2-.25,2.25,0,6.15.9,13.3.09,21-.75,3.68-.4,10.42.47,13.5.75,10.92,1,19.11.07,28.5,1.5,3,0,7.5.75,10.5.75,10.82,2.61,17.41-5.51,25.5-7.5,9.3-1.18,60-6.25,84.75-6.75,0,0,55.57-4.36,74.25-9.75C421.5,105.75,450.44,99.58,453,99Z"/>
    <path class="cls-2" d="M392.25,130.5H396c0,.25,1.5.5,1.5.75-6.67,6-17.44,9.63-21.75,18-2,3.89-3.31,20-6,21.75-8.76-5.33-36-19.36-46.5-21.75.25-.25-1.75-.5-1.5-.75-.25-.5,1.75-1,1.5-1.5h0c8.34-10.94,37.57-10.08,53.25-14.25C382.08,131.27,384.73,132.42,392.25,130.5Z"/>
  </g>
  <g id="topBack" class="cls-1">
    <path class="cls-2" d="M349.5,24.75c3.93,1.45,3.56,4.51,8.25,5.25,2.17-3.43,4.61-4.63,10.5-4.5C372.94,33.42,377,44.39,379.5,54s-5.34,24-8.25,23.25c-5.93-1.67-18.93-14-22.5-18.75-1.83-2.42-3.47-5.93-6-7.5-6.69-4.16-11.9-7.47-17.25-12.75C332.15,38.24,345.37,28.43,349.5,24.75Z"/>
    <path class="cls-2" d="M485.25,48.75c10.8,7.38,8.27,40.41,15,53.25H498c-2.74-6.3-5.49-9.07-9.75-13.5-9.48.31-17.2,6.59-28.5,3.75-5.45-1.37-10.06-4.69-16.5-5.25V85.5c9.92-.82,22.77-7.31,27-14.25,2.61-4.29,3-13.79,6-17.25C478.29,51.63,482.73,50.69,485.25,48.75Z"/>
  </g>
  <g id="brand" class="cls-1">
    <path class="cls-2" d="M312,66h1.5c.62,4.14-.82,17.92-2.25,22.5C305.8,94,292.8,98.21,285,102c-4.84,2.35-9.13,5.25-15,6.75-9.51,2.43-14.18-4.35-22.5-2.25-8,2-15.68,7.75-23.25,9.75-5.08,1.34-11.77-.76-18.75-.75v-.75c.6-.77.27-.21.75-1.5,26.9-12,55.66-23.36,81.75-36.75A174.06,174.06,0,0,1,305.25,69,37.86,37.86,0,0,0,312,66Z"/>
  </g>
  <g id="mesh" class="cls-1">
    <path class="cls-2" d="M134.25,122.25c0,1,.75,1.25.75,2.25a25.15,25.15,0,0,0,6.75,2.25c6.29,1.11,8.19,1.45,11.25.75,2,.25,5.5-.25,7.5,0,7.08.11,11.58.33,15.75-.75H195c16.11,0,32.36,1,45.75,3.75-.77.6-.21.27-1.5.75-2.8,1.94-7.38,3.76-11.25,6.75-1.5,2.25-5.25,3-6.75,5.25-3.56,2.36-4.58,4-7.5,6.75-4.52,4.31-2,12.49-9.75,14.25-2.94-.68-7-1.08-9.75-1.5,0,0-2.85-.68-3-.75,0-.5-3.75-1-3.75-1.5-4.13-.95-6-2-9-3-.25,1.73-3.5,1.25-3.75.75A101.78,101.78,0,0,0,163.5,156c-7.73-.62-11-.29-19.5-1.5a102.21,102.21,0,0,1-11.25,0c-12.43-.91-24.44-.94-33-1.5-3,.25-9-.47-12-.75a41,41,0,0,1-18-3.75,29,29,0,0,1-2.25-5.25c3.64-1.68,8.65-1.26,12.75-3,5.34-2.27,11.77-4.31,17.25-6,2.5-.25,7.25-2.75,9.75-3C110.32,130.45,121.81,124.42,134.25,122.25Z"/>
    <path class="cls-2" d="M321.75,148.5c11.68,3.27,29,10.74,38.25,15.75,2,1.08,7.79,4.29,10.5,7.5-1.27,2-2.13,18.17-3,21a34.2,34.2,0,0,0-10.5.75c-1.91.36-8-.59-11.25,0-9.21,1.67-28.33,1.84-41.25,2.25-.25-.75-.85-3.15,0-3.75-.08-7.15,1.74-10.68,2.25-12.75,1.86-7.63,3.27-13.76,6.75-20.25C315.5,155.27,319.39,152.29,321.75,148.5Z"/>
  </g>
  <g id="laces" class="cls-1">
    <path class="cls-2" d="M254.25,76.5c0-.75-1.5-.75-1.5-1.5-2.22-.3-3-1.83-4.5-3H249a17.05,17.05,0,0,1,11.25-6.75c.72-5,8-11.46,12-12.75h12c2.05-.92,2.92-4.49,4.5-6,2.87-2.75,14.09-6.6,19.5-6.75l.75.75c-1.14,5.62,1.79,7.77,3,12.75-2.74.91-3.15,2.59-6.75,3-5.1-3.52-13.66-3.58-19.5-1.5,1.28,2,1.9,1.87,2.25,5.25-.67,1.53-.59,0-2.25,4.5H285c-2.69,1.37-4.88.83-7.5.75-2.89-2.24-6.05-3-11.25-3-.07,2.56-.08,1.67-2.25,3.75,2.47,2.24,2.34,4,2.25,9a13.46,13.46,0,0,0-3,2.25Z"/>
    <path class="cls-2" d="M236.25,75.75h6v1.5c2,2.48,1.1,4.63.75,8.25-2.1,1.13-3.72,1.53-7.5,1.5-2.63-2.84-7.43-2.76-9.75-6C228.42,79.45,233.89,77.93,236.25,75.75Z"/>
    <path class="cls-2" d="M216.75,85.5c2.53,1.21,2.74,3.39,4.5,5.25-.33,2.11.84,2.45,0,3.75-.89,2.7-1.88,3.49-5.25,3.75-3.14-1.85-9.09-2.31-12-6.75C207.28,89.55,213.57,88.05,216.75,85.5Z"/>
    <path class="cls-2" d="M192,94.5h6.75v.75c-1.78,3.61,2,11.44-1.5,13.5-1.27.86-4.42,0-6.75,0-1.64-3.79-5.74-2.73-6.75-7.5h0l.75-.75C186.49,98,189.77,96.79,192,94.5Z"/>
    <path class="cls-2" d="M176.25,105v10.5c-2.61,1.31-3.27,2.14-7.5,2.25-.8-.56-.71-.45-2.25-.75-.49-4.18-.89-4.89-.75-9l1.5-.75C169.48,105.58,172.43,105.05,176.25,105Z"/>
  </g>
  <g id="lacesBottom" class="cls-1">
    <path class="cls-2" d="M166.5,117c3.85.52,6.31.77,9-1.5,1.31-2,.84-7.27.75-10.5-1.32-.47-.73-.14-1.5-.75,4.83-.29,5.88-2.18,9.75-3v2.25c4,2.59,5.18,5.22,12,5.25.77-.6.21-.27,1.5-.75-.09-2.24-1.25-14.78,2.25-14.25,4.82-4,10.41,3.44,18.75,3.75a13.46,13.46,0,0,1,2.25-3c-.5-3.61-1.77-5.17-3-9,3.38-1.42,5.36-4,7.5-3.75,4.54.56,7.89,4.42,15,3.75,0-.75,1.5-.75,1.5-1.5,1.56-.28-.06-.93.75-1.5.6-.88-.17-1.26,0-3-.83-1-.37-2.15-.75-3.75,3.94-1,2.8-2.65,7.5-3,1.18,1.37,1.41,1,3.75,1.5,0,.75.75,1.5.75,2.25,4.58.08,7.07.61,10.5,0,1.13-2.1,1.53-3.72,1.5-7.5a8.17,8.17,0,0,1-3-3.75c4.89-1.4.46-3.61,7.5-3.75,4.88,1.7,5.48,3.88,11.25,3.75.25-.25,3.5-.5,3.75-.75,0-1.5.75-3,.75-4.5,2.15,0,.44.7.75-3-.75-.75-.75-1.5-1.5-2.25,1.68-.58,2.57-1.52,5.25-1.5,3.29-2.31,12.15.32,17.25,2.25,1.09-1.59,2.13-1.87,3-3.75a14.88,14.88,0,0,1-3-9c2.68-.48,6-2.9,9.75-1.5,6,2.23,19,7.38,20.25,14.25-5.1,1.91-12.73,5.76-17.25,7.5-1.5,0-3,2.25-4.5,2.25-1.75,1.75-3.5,1.25-5.25,3-.61.3-1.48.13-3,.75-9.94,4.06-21.14,9.36-30.75,14.25-10.21,5.19-20.37,7.47-30.75,12-19.43,8.48-35.61,18.24-55.5,25.5-12.88,4.7-33.17,7.69-45.75,9-4.86.51-10.92-3.26-11.25-8.25,6.53-3.62,16-3.24,24-6,1.95-.67,6.47-4.37,6.75-3.75C166,113.06,166.26,114.92,166.5,117Z"/>
  </g>
  <g id="bottom" class="cls-1">
    <path class="cls-2" d="M458.25,190.5c14,0,27.71-1.94,39.75-1.5,1.13,2.1,1.53,3.72,1.5,7.5,2.18,3.21,1,15.5-.75,18-1.45,2-4.68,3.61-6,6s1,6.57-2.25,8.25h-5.25c-2.11-.8-6.13,2.45-9,3.75-.06,5.05-1.94,6.53-6.75,6.75-3-4.18-5.8-6.21-13.5-6l-.75,3.75c-2.55,1.16-3.07,2-6.75,2.25-2.87-4-5.32-5.48-12.75-5.25-2.8,2.63-4.43,5-9.75,5.25-1.72-2.18-3-1.73-3.75-5.25H411c-.93,3.66-3.26,5-7.5,5.25-1.44-3.24-3.14-1.52-3.75-6H391.5c-2,2.92-4.41,5.59-9,6-1.09-2.86-.88-.67-3-2.25-.83-.62-.74-3.24-1.5-3.75h-9c-2,3.38-3.54,5.9-9,6-1.13-1.39-2.08-2-3-3.75-.56-.8-.45-.71-.75-2.25H346.5v3c-2.09,1.38-2.12,2.39-5.25,3-1.09-1.59-2.13-1.87-3-3.75-.56-.8-.45-.71-.75-2.25h-9c-1.31,4-1.38,5.87-6.75,6-2.6-4.53-4.33-5.57-12-5.25-.81,3.64-2.26,5.82-6.75,6l-.75-2.25c-1.12-1.22-1.16-1.52-1.5-3.75-4.18.05-5.54,1-9,1.5v3.75h-1.5c-1,.66-2.6.67-4.5.75-2.7-4.59-2.56-5.55-10.5-5.25-.77.6-.21.27-1.5.75-.61,3.38-1.11,3.9-3.75,4.5-1.06.72-2.46.73-4.5.75-3.67-4.19-5.75-5.49-14.25-5.25v2.25c-3.48,2-2.7,4.27-8.25,4.5-2.77-4.66-6.45-6.32-14.25-6-1.25,4.54-3.37,7-9.75,6.75-2.15-6.23-3.12-7.21-12-6.75-.88,3.18-2.3,3.36-3,6.75l-4.5.75c-2.88-5.08-4.84-7.79-13.5-7.5-1.17,2.07-4.66,6.51-5.25,6.75-1,.66-1.85.67-3.75.75a13.64,13.64,0,0,0-3.75-5.25v-2.25h-10.5c-1.09,3.71-3.15,6-8.25,6-2.55-2.61-2.46-4.39-3.75-7.5-2.18.55-7.07-.74-9,0-3,1.14-1.09,3.8-8.25,3.75l-2.25-2.25c-2.1-3.32-.23-4.48-6-4.5-3.69-2.24-4.08,4.55-12,3-3.89-3.26-2.88-6.92-9.75-6.75-2.23-1-5.58,2-10.5,2.25-1.28-2.3-2.62-7.13-5.25-8.25-3.58-2.59-7.33-1.63-12.75-1.5-3.09-4.65-7-8.59-12.75-10.5H57v-.75C54.08,207,44.65,199.2,42.75,196.5H42V192c.66-1,.67-1.85.75-3.75a13.46,13.46,0,0,0,3-2.25c7.4,2.94,16.21,5.15,24.75,7.5l13.5.75c7.64,1.72,18.06,2,25.5,3.75l18.75.75c7,1.56,20.65,1.5,27,3,7-.25,11,.25,18,0,15.65,3.38,51.93.91,65.25-2.25l8.25.75c14.09-3.87,30.33-1.9,43.5-3.75,2.75,0,5.5-.75,8.25-.75,1.6-.37,4.79-.42,6-.75,1.88,1.07,4.94.09,9.75,0a207.48,207.48,0,0,0,21-1.5c2.25.5,5.25,0,7.5,0,11.24-1.07,19.52-1.41,33-1.5C376,192.25,450,192.31,458.25,190.5Z"/>
  </g>
  <g id="middleHalf" class="cls-1">
    <path class="cls-2" d="M304.5,195.75s3.48-27.43,10.5-37.5c8-11.44,10.19-16.62,33-21,0,0,42.63-5.91,49.5-6.75s80.27-15,99-27c0,0,2.5-7.09-9.75-15,0,0-66.55,19.67-101.25,22.5,0,0-103.06,7.79-119.25,10.5,0,0-50.22,10.37-62.25,43.5,0,0,14.34,3.58,44.25,35.25Z"/>
  </g>
  <g id="tip" class="cls-1">
    <path class="cls-2" d="M66.75,144c3.64,2.9,4,5.56,9.75,6.75,10.93,2.26,25,1,35.25,2.25,5.75-.25,11.5.25,17.25,0,0,.16,5.25.25,5.25.75,4.66.27,6.54.45,12,.75,0,.5,1.5-.5,1.5,0a35.94,35.94,0,0,0,5.25.75c2.32-.11,3.57.15,4.5,0,.65-.11,9.56.62,11.25.75a21,21,0,0,1,5.25.75c.74.19,4.25.25,4.5.75a39.21,39.21,0,0,1,6,.75c.25.5,6.5,1,6.75,1.5,3.08.93,7.9,1.83,10.5,3,19.46,8.75,37.84,20.54,46.5,38.25h-1.5c-2.92.45-5.83.47-9,.75-13,1.15-31.15,1.5-47.25,1.5-19.36,0-45.05-2-62.25-3.75-10.65-1.07-20.79-1.23-30-2.25C84.45,195.73,74,195,62.25,192L45,186c-4.2-8.45-3.16-8.2-3-20.25,2.44-4.37,4.25-8.5,6.75-11.25C54.59,150.48,60.16,149.06,66.75,144Z"/>
  </g>
    <g id="shadow" data-name="shadow Image">
    <image id="shadow_Image-2" data-name="shadow Image" width="622" height="298" transform="translate(36.75 24) scale(0.75)" xlink:href="assets/assets1.png"/>
  </g>
</svg>
